<?xml version="1.0" encoding="UTF-8" standalone="no"?>
<!DOCTYPE svg PUBLIC "-//W3C//DTD SVG 1.1//EN"
 "http://www.w3.org/Graphics/SVG/1.1/DTD/svg11.dtd">
<!-- Generated by graphviz version 9.0.0 (20230911.1827)
 -->
<!-- Title: tree Pages: 1 -->
<svg width="742pt" height="598pt"
 viewBox="0.00 0.00 741.60 598.16" xmlns="http://www.w3.org/2000/svg" xmlns:xlink="http://www.w3.org/1999/xlink">
<g id="graph0" class="graph" transform="scale(1 1) rotate(0) translate(4 594.16)">
<title>tree</title>
<polygon fill="white" stroke="none" points="-4,4 -4,-594.16 737.6,-594.16 737.6,4 -4,4"/>
<!-- &gt;P1 -->
<g id="node1" class="node">
<title>&gt;P1</title>
<path fill="#0173b2" stroke="none" d="M35.38,-327.96C35.38,-327.96 12,-327.96 12,-327.96 6,-327.96 0,-321.96 0,-315.96 0,-315.96 0,-260.2 0,-260.2 0,-254.2 6,-248.2 12,-248.2 12,-248.2 35.38,-248.2 35.38,-248.2 41.38,-248.2 47.38,-254.2 47.38,-260.2 47.38,-260.2 47.38,-315.96 47.38,-315.96 47.38,-321.96 41.38,-327.96 35.38,-327.96"/>
<text text-anchor="start" x="10.69" y="-311.28" font-family="Times,serif" font-size="12.00">(338)</text>
<text text-anchor="start" x="17.02" y="-299.28" font-family="Times,serif" font-weight="bold" font-size="12.00">P1</text>
<text text-anchor="start" x="6.88" y="-282.08" font-family="Times,serif" font-size="10.00">RC: 238</text>
<text text-anchor="start" x="9.1" y="-270.08" font-family="Times,serif" font-size="10.00">RN: 55</text>
<text text-anchor="start" x="7.99" y="-258.08" font-family="Times,serif" font-size="10.00">AM: 45</text>
<polygon fill="black" stroke="black" points="2.88,-294.08 2.88,-294.08 44.5,-294.08 44.5,-294.08 2.88,-294.08"/>
</g>
<!-- P1&gt;P2 -->
<g id="node2" class="node">
<title>P1&gt;P2</title>
<path fill="#0173b2" stroke="none" d="M139.76,-323.16C139.76,-323.16 116.38,-323.16 116.38,-323.16 110.38,-323.16 104.38,-317.16 104.38,-311.16 104.38,-311.16 104.38,-265 104.38,-265 104.38,-259 110.38,-253 116.38,-253 116.38,-253 139.76,-253 139.76,-253 145.76,-253 151.76,-259 151.76,-265 151.76,-265 151.76,-311.16 151.76,-311.16 151.76,-317.16 145.76,-323.16 139.76,-323.16"/>
<text text-anchor="start" x="121.4" y="-306.48" font-family="Times,serif" font-weight="bold" font-size="12.00">P2</text>
<text text-anchor="start" x="111.26" y="-286.88" font-family="Times,serif" font-size="10.00">RC: 238</text>
<text text-anchor="start" x="113.48" y="-274.88" font-family="Times,serif" font-size="10.00">RN: 55</text>
<text text-anchor="start" x="112.37" y="-262.88" font-family="Times,serif" font-size="10.00">AM: 45</text>
<polygon fill="black" stroke="black" points="107.26,-298.88 107.26,-298.88 148.88,-298.88 148.88,-298.88 107.26,-298.88"/>
</g>
<!-- &gt;P1&#45;&gt;P1&gt;P2 -->
<g id="edge1" class="edge">
<title>&gt;P1&#45;&gt;P1&gt;P2</title>
<path fill="none" stroke="black" d="M47.16,-288.08C60.76,-288.08 78.36,-288.08 93.58,-288.08"/>
<polygon fill="black" stroke="black" points="93.14,-291.58 103.14,-288.08 93.14,-284.58 93.14,-291.58"/>
<text text-anchor="middle" x="75.88" y="-292.28" font-family="Times,serif" font-size="14.00">338</text>
</g>
<!-- P1&gt;P2&gt;AM -->
<g id="node3" class="node">
<title>P1&gt;P2&gt;AM</title>
<path fill="#d55e00" stroke="none" d="M239.93,-335.16C239.93,-335.16 224.96,-335.16 224.96,-335.16 220.26,-335.16 215.57,-330.47 215.57,-325.77 215.57,-325.77 215.57,-316.39 215.57,-316.39 215.57,-311.69 220.26,-307 224.96,-307 224.96,-307 239.93,-307 239.93,-307 244.63,-307 249.32,-311.69 249.32,-316.39 249.32,-316.39 249.32,-325.77 249.32,-325.77 249.32,-330.47 244.63,-335.16 239.93,-335.16"/>
<text text-anchor="start" x="222.45" y="-318.48" font-family="Times,serif" font-weight="bold" font-size="12.00">AM</text>
</g>
<!-- P1&gt;P2&#45;&gt;P1&gt;P2&gt;AM -->
<g id="edge2" class="edge">
<title>P1&gt;P2&#45;&gt;P1&gt;P2&gt;AM</title>
<path fill="none" stroke="black" d="M151.53,-295.32C167.32,-300.41 188.48,-307.23 205.07,-312.58"/>
<polygon fill="black" stroke="black" points="203.66,-315.8 214.25,-315.54 205.81,-309.14 203.66,-315.8"/>
<text text-anchor="middle" x="180.26" y="-311.28" font-family="Times,serif" font-size="14.00">30</text>
</g>
<!-- P1&gt;P2&gt;P3 -->
<g id="node4" class="node">
<title>P1&gt;P2&gt;P3</title>
<path fill="#0173b2" stroke="none" d="M244.13,-289.16C244.13,-289.16 220.76,-289.16 220.76,-289.16 214.76,-289.16 208.76,-283.16 208.76,-277.16 208.76,-277.16 208.76,-231 208.76,-231 208.76,-225 214.76,-219 220.76,-219 220.76,-219 244.13,-219 244.13,-219 250.13,-219 256.13,-225 256.13,-231 256.13,-231 256.13,-277.16 256.13,-277.16 256.13,-283.16 250.13,-289.16 244.13,-289.16"/>
<text text-anchor="start" x="225.78" y="-272.48" font-family="Times,serif" font-weight="bold" font-size="12.00">P3</text>
<text text-anchor="start" x="215.64" y="-252.88" font-family="Times,serif" font-size="10.00">RC: 238</text>
<text text-anchor="start" x="217.86" y="-240.88" font-family="Times,serif" font-size="10.00">RN: 55</text>
<text text-anchor="start" x="216.75" y="-228.88" font-family="Times,serif" font-size="10.00">AM: 15</text>
<polygon fill="black" stroke="black" points="211.64,-264.88 211.64,-264.88 253.25,-264.88 253.25,-264.88 211.64,-264.88"/>
</g>
<!-- P1&gt;P2&#45;&gt;P1&gt;P2&gt;P3 -->
<g id="edge3" class="edge">
<title>P1&gt;P2&#45;&gt;P1&gt;P2&gt;P3</title>
<path fill="none" stroke="black" d="M151.53,-280.62C165.27,-276.06 183.09,-270.14 198.41,-265.05"/>
<polygon fill="black" stroke="black" points="199.21,-268.47 207.59,-262 197,-261.83 199.21,-268.47"/>
<text text-anchor="middle" x="180.26" y="-278.28" font-family="Times,serif" font-size="14.00">308</text>
</g>
<!-- P1&gt;P2&gt;P3&gt;DU -->
<g id="node5" class="node">
<title>P1&gt;P2&gt;P3&gt;DU</title>
<path fill="#0173b2" stroke="none" d="M348.51,-289.16C348.51,-289.16 325.13,-289.16 325.13,-289.16 319.13,-289.16 313.13,-283.16 313.13,-277.16 313.13,-277.16 313.13,-231 313.13,-231 313.13,-225 319.13,-219 325.13,-219 325.13,-219 348.51,-219 348.51,-219 354.51,-219 360.51,-225 360.51,-231 360.51,-231 360.51,-277.16 360.51,-277.16 360.51,-283.16 354.51,-289.16 348.51,-289.16"/>
<text text-anchor="start" x="328.16" y="-272.48" font-family="Times,serif" font-weight="bold" font-size="12.00">DU</text>
<text text-anchor="start" x="320.01" y="-252.88" font-family="Times,serif" font-size="10.00">RC: 238</text>
<text text-anchor="start" x="322.24" y="-240.88" font-family="Times,serif" font-size="10.00">RN: 55</text>
<text text-anchor="start" x="321.13" y="-228.88" font-family="Times,serif" font-size="10.00">AM: 15</text>
<polygon fill="black" stroke="black" points="316.01,-264.88 316.01,-264.88 357.63,-264.88 357.63,-264.88 316.01,-264.88"/>
</g>
<!-- P1&gt;P2&gt;P3&#45;&gt;P1&gt;P2&gt;P3&gt;DU -->
<g id="edge4" class="edge">
<title>P1&gt;P2&gt;P3&#45;&gt;P1&gt;P2&gt;P3&gt;DU</title>
<path fill="none" stroke="black" d="M255.91,-254.08C269.52,-254.08 287.12,-254.08 302.34,-254.08"/>
<polygon fill="black" stroke="black" points="301.9,-257.58 311.9,-254.08 301.9,-250.58 301.9,-257.58"/>
<text text-anchor="middle" x="284.63" y="-258.28" font-family="Times,serif" font-size="14.00">308</text>
</g>
<!-- P1&gt;P2&gt;P3&gt;DU&gt;EA -->
<g id="node6" class="node">
<title>P1&gt;P2&gt;P3&gt;DU&gt;EA</title>
<path fill="#0173b2" stroke="none" d="M455.19,-484.16C455.19,-484.16 436.26,-484.16 436.26,-484.16 430.26,-484.16 424.26,-478.16 424.26,-472.16 424.26,-472.16 424.26,-426 424.26,-426 424.26,-420 430.26,-414 436.26,-414 436.26,-414 455.19,-414 455.19,-414 461.19,-414 467.19,-420 467.19,-426 467.19,-426 467.19,-472.16 467.19,-472.16 467.19,-478.16 461.19,-484.16 455.19,-484.16"/>
<text text-anchor="start" x="437.39" y="-467.48" font-family="Times,serif" font-weight="bold" font-size="12.00">EA</text>
<text text-anchor="start" x="431.41" y="-447.88" font-family="Times,serif" font-size="10.00">RC: 16</text>
<text text-anchor="start" x="431.14" y="-435.88" font-family="Times,serif" font-size="10.00">RN: 27</text>
<text text-anchor="start" x="432.53" y="-423.88" font-family="Times,serif" font-size="10.00">AM: 3</text>
<polygon fill="black" stroke="black" points="427.14,-459.88 427.14,-459.88 464.31,-459.88 464.31,-459.88 427.14,-459.88"/>
</g>
<!-- P1&gt;P2&gt;P3&gt;DU&#45;&gt;P1&gt;P2&gt;P3&gt;DU&gt;EA -->
<g id="edge5" class="edge">
<title>P1&gt;P2&gt;P3&gt;DU&#45;&gt;P1&gt;P2&gt;P3&gt;DU&gt;EA</title>
<path fill="none" stroke="black" d="M356.94,-288.94C374.59,-321.15 400.91,-369.16 420.13,-404.22"/>
<polygon fill="black" stroke="black" points="416.99,-405.78 424.87,-412.86 423.13,-402.41 416.99,-405.78"/>
<text text-anchor="middle" x="389.01" y="-367.28" font-family="Times,serif" font-size="14.00">46</text>
</g>
<!-- P1&gt;P2&gt;P3&gt;DU&gt;RCFOR -->
<g id="node14" class="node">
<title>P1&gt;P2&gt;P3&gt;DU&gt;RCFOR</title>
<path fill="#0173b2" stroke="none" d="M464.55,-327.16C464.55,-327.16 426.9,-327.16 426.9,-327.16 422.21,-327.16 417.51,-322.47 417.51,-317.77 417.51,-317.77 417.51,-308.39 417.51,-308.39 417.51,-303.69 422.21,-299 426.9,-299 426.9,-299 464.55,-299 464.55,-299 469.24,-299 473.93,-303.69 473.93,-308.39 473.93,-308.39 473.93,-317.77 473.93,-317.77 473.93,-322.47 469.24,-327.16 464.55,-327.16"/>
<text text-anchor="start" x="424.39" y="-310.48" font-family="Times,serif" font-weight="bold" font-size="12.00">RCFOR</text>
</g>
<!-- P1&gt;P2&gt;P3&gt;DU&#45;&gt;P1&gt;P2&gt;P3&gt;DU&gt;RCFOR -->
<g id="edge6" class="edge">
<title>P1&gt;P2&gt;P3&gt;DU&#45;&gt;P1&gt;P2&gt;P3&gt;DU&gt;RCFOR</title>
<path fill="none" stroke="black" d="M360.49,-266.59C374.81,-274.49 393.59,-284.86 409.78,-293.79"/>
<polygon fill="black" stroke="black" points="407.69,-296.64 418.14,-298.41 411.08,-290.51 407.69,-296.64"/>
<text text-anchor="middle" x="389.01" y="-291.28" font-family="Times,serif" font-size="14.00">91</text>
</g>
<!-- P1&gt;P2&gt;P3&gt;DU&gt;RCPOS -->
<g id="node18" class="node">
<title>P1&gt;P2&gt;P3&gt;DU&gt;RCPOS</title>
<path fill="#0173b2" stroke="none" d="M463.55,-224.16C463.55,-224.16 427.9,-224.16 427.9,-224.16 423.2,-224.16 418.51,-219.47 418.51,-214.77 418.51,-214.77 418.51,-205.39 418.51,-205.39 418.51,-200.69 423.2,-196 427.9,-196 427.9,-196 463.55,-196 463.55,-196 468.25,-196 472.94,-200.69 472.94,-205.39 472.94,-205.39 472.94,-214.77 472.94,-214.77 472.94,-219.47 468.25,-224.16 463.55,-224.16"/>
<text text-anchor="start" x="425.39" y="-207.48" font-family="Times,serif" font-weight="bold" font-size="12.00">RCPOS</text>
</g>
<!-- P1&gt;P2&gt;P3&gt;DU&#45;&gt;P1&gt;P2&gt;P3&gt;DU&gt;RCPOS -->
<g id="edge7" class="edge">
<title>P1&gt;P2&gt;P3&gt;DU&#45;&gt;P1&gt;P2&gt;P3&gt;DU&gt;RCPOS</title>
<path fill="none" stroke="black" d="M360.49,-244.75C374.34,-239.05 392.36,-231.63 408.18,-225.12"/>
<polygon fill="black" stroke="black" points="409.39,-228.41 417.3,-221.37 406.72,-221.94 409.39,-228.41"/>
<text text-anchor="middle" x="389.01" y="-241.28" font-family="Times,serif" font-size="14.00">123</text>
</g>
<!-- P1&gt;P2&gt;P3&gt;DU&gt;RCRES -->
<g id="node22" class="node">
<title>P1&gt;P2&gt;P3&gt;DU&gt;RCRES</title>
<path fill="#0173b2" stroke="none" d="M463.55,-97.16C463.55,-97.16 427.89,-97.16 427.89,-97.16 423.2,-97.16 418.51,-92.47 418.51,-87.77 418.51,-87.77 418.51,-78.39 418.51,-78.39 418.51,-73.69 423.2,-69 427.89,-69 427.89,-69 463.55,-69 463.55,-69 468.25,-69 472.94,-73.69 472.94,-78.39 472.94,-78.39 472.94,-87.77 472.94,-87.77 472.94,-92.47 468.25,-97.16 463.55,-97.16"/>
<text text-anchor="start" x="425.39" y="-80.48" font-family="Times,serif" font-weight="bold" font-size="12.00">RCRES</text>
</g>
<!-- P1&gt;P2&gt;P3&gt;DU&#45;&gt;P1&gt;P2&gt;P3&gt;DU&gt;RCRES -->
<g id="edge8" class="edge">
<title>P1&gt;P2&gt;P3&gt;DU&#45;&gt;P1&gt;P2&gt;P3&gt;DU&gt;RCRES</title>
<path fill="none" stroke="black" d="M359.71,-219.06C380.71,-185.47 411.84,-135.68 430.02,-106.59"/>
<polygon fill="black" stroke="black" points="432.96,-108.5 435.29,-98.16 427.03,-104.79 432.96,-108.5"/>
<text text-anchor="middle" x="389.01" y="-192.28" font-family="Times,serif" font-size="14.00">48</text>
</g>
<!-- P1&gt;P2&gt;P3&gt;DU&gt;EA&gt;AIC -->
<g id="node7" class="node">
<title>P1&gt;P2&gt;P3&gt;DU&gt;EA&gt;AIC</title>
<path fill="#0173b2" stroke="none" d="M559.09,-576.16C559.09,-576.16 542.93,-576.16 542.93,-576.16 536.93,-576.16 530.93,-570.16 530.93,-564.16 530.93,-564.16 530.93,-518 530.93,-518 530.93,-512 536.93,-506 542.93,-506 542.93,-506 559.09,-506 559.09,-506 565.09,-506 571.09,-512 571.09,-518 571.09,-518 571.09,-564.16 571.09,-564.16 571.09,-570.16 565.09,-576.16 559.09,-576.16"/>
<text text-anchor="start" x="540.01" y="-559.48" font-family="Times,serif" font-weight="bold" font-size="12.00">AIC</text>
<text text-anchor="start" x="539.2" y="-539.88" font-family="Times,serif" font-size="10.00">RC: 5</text>
<text text-anchor="start" x="538.93" y="-527.88" font-family="Times,serif" font-size="10.00">RN: 0</text>
<text text-anchor="start" x="537.81" y="-515.88" font-family="Times,serif" font-size="10.00">AM: 3</text>
<polygon fill="black" stroke="black" points="533.81,-551.88 533.81,-551.88 568.21,-551.88 568.21,-551.88 533.81,-551.88"/>
</g>
<!-- P1&gt;P2&gt;P3&gt;DU&gt;EA&#45;&gt;P1&gt;P2&gt;P3&gt;DU&gt;EA&gt;AIC -->
<g id="edge9" class="edge">
<title>P1&gt;P2&gt;P3&gt;DU&gt;EA&#45;&gt;P1&gt;P2&gt;P3&gt;DU&gt;EA&gt;AIC</title>
<path fill="none" stroke="black" d="M467.13,-467.26C483.1,-481.48 505.44,-501.38 522.91,-516.94"/>
<polygon fill="black" stroke="black" points="520.11,-519.14 529.91,-523.18 524.77,-513.91 520.11,-519.14"/>
<text text-anchor="middle" x="502.43" y="-509.28" font-family="Times,serif" font-size="14.00">8</text>
</g>
<!-- P1&gt;P2&gt;P3&gt;DU&gt;EA&gt;APD -->
<g id="node11" class="node">
<title>P1&gt;P2&gt;P3&gt;DU&gt;EA&gt;APD</title>
<path fill="#0173b2" stroke="none" d="M560.83,-488.16C560.83,-488.16 541.19,-488.16 541.19,-488.16 536.49,-488.16 531.8,-483.47 531.8,-478.77 531.8,-478.77 531.8,-469.39 531.8,-469.39 531.8,-464.69 536.49,-460 541.19,-460 541.19,-460 560.83,-460 560.83,-460 565.53,-460 570.22,-464.69 570.22,-469.39 570.22,-469.39 570.22,-478.77 570.22,-478.77 570.22,-483.47 565.53,-488.16 560.83,-488.16"/>
<text text-anchor="start" x="538.68" y="-471.48" font-family="Times,serif" font-weight="bold" font-size="12.00">APD</text>
</g>
<!-- P1&gt;P2&gt;P3&gt;DU&gt;EA&#45;&gt;P1&gt;P2&gt;P3&gt;DU&gt;EA&gt;APD -->
<g id="edge10" class="edge">
<title>P1&gt;P2&gt;P3&gt;DU&gt;EA&#45;&gt;P1&gt;P2&gt;P3&gt;DU&gt;EA&gt;APD</title>
<path fill="none" stroke="black" d="M467.13,-454.02C482.51,-457.74 503.81,-462.9 520.97,-467.05"/>
<polygon fill="black" stroke="black" points="520.05,-470.43 530.59,-469.38 521.69,-463.63 520.05,-470.43"/>
<text text-anchor="middle" x="502.43" y="-468.28" font-family="Times,serif" font-size="14.00">11</text>
</g>
<!-- P1&gt;P2&gt;P3&gt;DU&gt;EA&gt;RN -->
<g id="node13" class="node">
<title>P1&gt;P2&gt;P3&gt;DU&gt;EA&gt;RN</title>
<path fill="#de8f05" stroke="none" d="M557.17,-442.16C557.17,-442.16 544.85,-442.16 544.85,-442.16 540.16,-442.16 535.46,-437.47 535.46,-432.77 535.46,-432.77 535.46,-423.39 535.46,-423.39 535.46,-418.69 540.16,-414 544.85,-414 544.85,-414 557.17,-414 557.17,-414 561.86,-414 566.56,-418.69 566.56,-423.39 566.56,-423.39 566.56,-432.77 566.56,-432.77 566.56,-437.47 561.86,-442.16 557.17,-442.16"/>
<text text-anchor="start" x="542.34" y="-425.48" font-family="Times,serif" font-weight="bold" font-size="12.00">RN</text>
</g>
<!-- P1&gt;P2&gt;P3&gt;DU&gt;EA&#45;&gt;P1&gt;P2&gt;P3&gt;DU&gt;EA&gt;RN -->
<g id="edge11" class="edge">
<title>P1&gt;P2&gt;P3&gt;DU&gt;EA&#45;&gt;P1&gt;P2&gt;P3&gt;DU&gt;EA&gt;RN</title>
<path fill="none" stroke="black" d="M467.06,-440.12C474.72,-437.13 483.59,-434.09 491.93,-432.28 502.33,-430.02 513.99,-428.91 524.12,-428.38"/>
<polygon fill="black" stroke="black" points="524.14,-431.89 534.02,-428.05 523.9,-424.89 524.14,-431.89"/>
<text text-anchor="middle" x="502.43" y="-436.28" font-family="Times,serif" font-size="14.00">27</text>
</g>
<!-- P1&gt;P2&gt;P3&gt;DU&gt;EA&gt;AIC&gt;AM -->
<g id="node8" class="node">
<title>P1&gt;P2&gt;P3&gt;DU&gt;EA&gt;AIC&gt;AM</title>
<path fill="#d55e00" stroke="none" d="M647.79,-590.16C647.79,-590.16 632.81,-590.16 632.81,-590.16 628.11,-590.16 623.42,-585.47 623.42,-580.77 623.42,-580.77 623.42,-571.39 623.42,-571.39 623.42,-566.69 628.11,-562 632.81,-562 632.81,-562 647.79,-562 647.79,-562 652.48,-562 657.17,-566.69 657.17,-571.39 657.17,-571.39 657.17,-580.77 657.17,-580.77 657.17,-585.47 652.48,-590.16 647.79,-590.16"/>
<text text-anchor="start" x="630.3" y="-573.48" font-family="Times,serif" font-weight="bold" font-size="12.00">AM</text>
</g>
<!-- P1&gt;P2&gt;P3&gt;DU&gt;EA&gt;AIC&#45;&gt;P1&gt;P2&gt;P3&gt;DU&gt;EA&gt;AIC&gt;AM -->
<g id="edge12" class="edge">
<title>P1&gt;P2&gt;P3&gt;DU&gt;EA&gt;AIC&#45;&gt;P1&gt;P2&gt;P3&gt;DU&gt;EA&gt;AIC&gt;AM</title>
<path fill="none" stroke="black" d="M570.95,-548.67C583.25,-553.61 599.45,-560.1 613,-565.53"/>
<polygon fill="black" stroke="black" points="611.61,-568.75 622.2,-569.22 614.22,-562.25 611.61,-568.75"/>
<text text-anchor="middle" x="596.09" y="-564.28" font-family="Times,serif" font-size="14.00">3</text>
</g>
<!-- P1&gt;P2&gt;P3&gt;DU&gt;EA&gt;AIC&gt;APD -->
<g id="node9" class="node">
<title>P1&gt;P2&gt;P3&gt;DU&gt;EA&gt;AIC&gt;APD</title>
<path fill="#0173b2" stroke="none" d="M650.12,-544.16C650.12,-544.16 630.47,-544.16 630.47,-544.16 625.78,-544.16 621.09,-539.47 621.09,-534.77 621.09,-534.77 621.09,-525.39 621.09,-525.39 621.09,-520.69 625.78,-516 630.47,-516 630.47,-516 650.12,-516 650.12,-516 654.82,-516 659.51,-520.69 659.51,-525.39 659.51,-525.39 659.51,-534.77 659.51,-534.77 659.51,-539.47 654.82,-544.16 650.12,-544.16"/>
<text text-anchor="start" x="627.97" y="-527.48" font-family="Times,serif" font-weight="bold" font-size="12.00">APD</text>
</g>
<!-- P1&gt;P2&gt;P3&gt;DU&gt;EA&gt;AIC&#45;&gt;P1&gt;P2&gt;P3&gt;DU&gt;EA&gt;AIC&gt;APD -->
<g id="edge13" class="edge">
<title>P1&gt;P2&gt;P3&gt;DU&gt;EA&gt;AIC&#45;&gt;P1&gt;P2&gt;P3&gt;DU&gt;EA&gt;AIC&gt;APD</title>
<path fill="none" stroke="black" d="M570.95,-538.69C582.39,-537.25 597.21,-535.38 610.12,-533.76"/>
<polygon fill="black" stroke="black" points="610.3,-537.26 619.79,-532.54 609.43,-530.32 610.3,-537.26"/>
<text text-anchor="middle" x="596.09" y="-540.28" font-family="Times,serif" font-size="14.00">5</text>
</g>
<!-- P1&gt;P2&gt;P3&gt;DU&gt;EA&gt;AIC&gt;APD&gt;RC -->
<g id="node10" class="node">
<title>P1&gt;P2&gt;P3&gt;DU&gt;EA&gt;AIC&gt;APD&gt;RC</title>
<path fill="#029e73" stroke="none" d="M724.21,-544.16C724.21,-544.16 711.9,-544.16 711.9,-544.16 707.2,-544.16 702.51,-539.47 702.51,-534.77 702.51,-534.77 702.51,-525.39 702.51,-525.39 702.51,-520.69 707.2,-516 711.9,-516 711.9,-516 724.21,-516 724.21,-516 728.91,-516 733.6,-520.69 733.6,-525.39 733.6,-525.39 733.6,-534.77 733.6,-534.77 733.6,-539.47 728.91,-544.16 724.21,-544.16"/>
<text text-anchor="start" x="709.39" y="-527.48" font-family="Times,serif" font-weight="bold" font-size="12.00">RC</text>
</g>
<!-- P1&gt;P2&gt;P3&gt;DU&gt;EA&gt;AIC&gt;APD&#45;&gt;P1&gt;P2&gt;P3&gt;DU&gt;EA&gt;AIC&gt;APD&gt;RC -->
<g id="edge14" class="edge">
<title>P1&gt;P2&gt;P3&gt;DU&gt;EA&gt;AIC&gt;APD&#45;&gt;P1&gt;P2&gt;P3&gt;DU&gt;EA&gt;AIC&gt;APD&gt;RC</title>
<path fill="none" stroke="black" d="M659.25,-530.08C668.81,-530.08 680.74,-530.08 691.27,-530.08"/>
<polygon fill="black" stroke="black" points="691.26,-533.58 701.26,-530.08 691.26,-526.58 691.26,-533.58"/>
<text text-anchor="middle" x="681.01" y="-534.28" font-family="Times,serif" font-size="14.00">5</text>
</g>
<!-- P1&gt;P2&gt;P3&gt;DU&gt;EA&gt;APD&gt;RC -->
<g id="node12" class="node">
<title>P1&gt;P2&gt;P3&gt;DU&gt;EA&gt;APD&gt;RC</title>
<path fill="#029e73" stroke="none" d="M646.46,-488.16C646.46,-488.16 634.14,-488.16 634.14,-488.16 629.44,-488.16 624.75,-483.47 624.75,-478.77 624.75,-478.77 624.75,-469.39 624.75,-469.39 624.75,-464.69 629.44,-460 634.14,-460 634.14,-460 646.46,-460 646.46,-460 651.15,-460 655.84,-464.69 655.84,-469.39 655.84,-469.39 655.84,-478.77 655.84,-478.77 655.84,-483.47 651.15,-488.16 646.46,-488.16"/>
<text text-anchor="start" x="631.63" y="-471.48" font-family="Times,serif" font-weight="bold" font-size="12.00">RC</text>
</g>
<!-- P1&gt;P2&gt;P3&gt;DU&gt;EA&gt;APD&#45;&gt;P1&gt;P2&gt;P3&gt;DU&gt;EA&gt;APD&gt;RC -->
<g id="edge15" class="edge">
<title>P1&gt;P2&gt;P3&gt;DU&gt;EA&gt;APD&#45;&gt;P1&gt;P2&gt;P3&gt;DU&gt;EA&gt;APD&gt;RC</title>
<path fill="none" stroke="black" d="M570.1,-474.08C582.69,-474.08 599.66,-474.08 613.64,-474.08"/>
<polygon fill="black" stroke="black" points="613.47,-477.58 623.47,-474.08 613.47,-470.58 613.47,-477.58"/>
<text text-anchor="middle" x="596.09" y="-478.28" font-family="Times,serif" font-size="14.00">11</text>
</g>
<!-- P1&gt;P2&gt;P3&gt;DU&gt;RCFOR&gt;AM -->
<g id="node15" class="node">
<title>P1&gt;P2&gt;P3&gt;DU&gt;RCFOR&gt;AM</title>
<path fill="#d55e00" stroke="none" d="M558.5,-396.16C558.5,-396.16 543.52,-396.16 543.52,-396.16 538.83,-396.16 534.13,-391.47 534.13,-386.77 534.13,-386.77 534.13,-377.39 534.13,-377.39 534.13,-372.69 538.83,-368 543.52,-368 543.52,-368 558.5,-368 558.5,-368 563.19,-368 567.89,-372.69 567.89,-377.39 567.89,-377.39 567.89,-386.77 567.89,-386.77 567.89,-391.47 563.19,-396.16 558.5,-396.16"/>
<text text-anchor="start" x="541.01" y="-379.48" font-family="Times,serif" font-weight="bold" font-size="12.00">AM</text>
</g>
<!-- P1&gt;P2&gt;P3&gt;DU&gt;RCFOR&#45;&gt;P1&gt;P2&gt;P3&gt;DU&gt;RCFOR&gt;AM -->
<g id="edge16" class="edge">
<title>P1&gt;P2&gt;P3&gt;DU&gt;RCFOR&#45;&gt;P1&gt;P2&gt;P3&gt;DU&gt;RCFOR&gt;AM</title>
<path fill="none" stroke="black" d="M463.51,-326.91C471.87,-333.57 482.23,-341.52 491.93,-348.08 502.21,-355.02 513.95,-362.05 524.17,-367.9"/>
<polygon fill="black" stroke="black" points="522.4,-370.92 532.83,-372.78 525.83,-364.82 522.4,-370.92"/>
<text text-anchor="middle" x="502.43" y="-364.28" font-family="Times,serif" font-size="14.00">7</text>
</g>
<!-- P1&gt;P2&gt;P3&gt;DU&gt;RCFOR&gt;RC -->
<g id="node16" class="node">
<title>P1&gt;P2&gt;P3&gt;DU&gt;RCFOR&gt;RC</title>
<path fill="#029e73" stroke="none" d="M557.17,-350.16C557.17,-350.16 544.85,-350.16 544.85,-350.16 540.16,-350.16 535.46,-345.47 535.46,-340.77 535.46,-340.77 535.46,-331.39 535.46,-331.39 535.46,-326.69 540.16,-322 544.85,-322 544.85,-322 557.17,-322 557.17,-322 561.86,-322 566.56,-326.69 566.56,-331.39 566.56,-331.39 566.56,-340.77 566.56,-340.77 566.56,-345.47 561.86,-350.16 557.17,-350.16"/>
<text text-anchor="start" x="542.34" y="-333.48" font-family="Times,serif" font-weight="bold" font-size="12.00">RC</text>
</g>
<!-- P1&gt;P2&gt;P3&gt;DU&gt;RCFOR&#45;&gt;P1&gt;P2&gt;P3&gt;DU&gt;RCFOR&gt;RC -->
<g id="edge17" class="edge">
<title>P1&gt;P2&gt;P3&gt;DU&gt;RCFOR&#45;&gt;P1&gt;P2&gt;P3&gt;DU&gt;RCFOR&gt;RC</title>
<path fill="none" stroke="black" d="M473.86,-319.12C489.67,-322.64 509.48,-327.05 524.92,-330.49"/>
<polygon fill="black" stroke="black" points="523.75,-333.82 534.27,-332.58 525.27,-326.99 523.75,-333.82"/>
<text text-anchor="middle" x="502.43" y="-331.28" font-family="Times,serif" font-size="14.00">74</text>
</g>
<!-- P1&gt;P2&gt;P3&gt;DU&gt;RCFOR&gt;RN -->
<g id="node17" class="node">
<title>P1&gt;P2&gt;P3&gt;DU&gt;RCFOR&gt;RN</title>
<path fill="#de8f05" stroke="none" d="M557.17,-304.16C557.17,-304.16 544.85,-304.16 544.85,-304.16 540.16,-304.16 535.46,-299.47 535.46,-294.77 535.46,-294.77 535.46,-285.39 535.46,-285.39 535.46,-280.69 540.16,-276 544.85,-276 544.85,-276 557.17,-276 557.17,-276 561.86,-276 566.56,-280.69 566.56,-285.39 566.56,-285.39 566.56,-294.77 566.56,-294.77 566.56,-299.47 561.86,-304.16 557.17,-304.16"/>
<text text-anchor="start" x="542.34" y="-287.48" font-family="Times,serif" font-weight="bold" font-size="12.00">RN</text>
</g>
<!-- P1&gt;P2&gt;P3&gt;DU&gt;RCFOR&#45;&gt;P1&gt;P2&gt;P3&gt;DU&gt;RCFOR&gt;RN -->
<g id="edge18" class="edge">
<title>P1&gt;P2&gt;P3&gt;DU&gt;RCFOR&#45;&gt;P1&gt;P2&gt;P3&gt;DU&gt;RCFOR&gt;RN</title>
<path fill="none" stroke="black" d="M473.47,-306.56C479.53,-305.12 485.95,-303.62 491.93,-302.28 502.63,-299.88 514.46,-297.37 524.64,-295.25"/>
<polygon fill="black" stroke="black" points="525.1,-298.73 534.18,-293.28 523.68,-291.88 525.1,-298.73"/>
<text text-anchor="middle" x="502.43" y="-306.28" font-family="Times,serif" font-size="14.00">10</text>
</g>
<!-- P1&gt;P2&gt;P3&gt;DU&gt;RCPOS&gt;AM -->
<g id="node19" class="node">
<title>P1&gt;P2&gt;P3&gt;DU&gt;RCPOS&gt;AM</title>
<path fill="#d55e00" stroke="none" d="M558.5,-258.16C558.5,-258.16 543.52,-258.16 543.52,-258.16 538.83,-258.16 534.13,-253.47 534.13,-248.77 534.13,-248.77 534.13,-239.39 534.13,-239.39 534.13,-234.69 538.83,-230 543.52,-230 543.52,-230 558.5,-230 558.5,-230 563.19,-230 567.89,-234.69 567.89,-239.39 567.89,-239.39 567.89,-248.77 567.89,-248.77 567.89,-253.47 563.19,-258.16 558.5,-258.16"/>
<text text-anchor="start" x="541.01" y="-241.48" font-family="Times,serif" font-weight="bold" font-size="12.00">AM</text>
</g>
<!-- P1&gt;P2&gt;P3&gt;DU&gt;RCPOS&#45;&gt;P1&gt;P2&gt;P3&gt;DU&gt;RCPOS&gt;AM -->
<g id="edge19" class="edge">
<title>P1&gt;P2&gt;P3&gt;DU&gt;RCPOS&#45;&gt;P1&gt;P2&gt;P3&gt;DU&gt;RCPOS&gt;AM</title>
<path fill="none" stroke="black" d="M472.79,-218.66C488.37,-223.79 508.11,-230.29 523.73,-235.43"/>
<polygon fill="black" stroke="black" points="522.22,-238.62 532.82,-238.42 524.41,-231.97 522.22,-238.62"/>
<text text-anchor="middle" x="502.43" y="-235.28" font-family="Times,serif" font-size="14.00">3</text>
</g>
<!-- P1&gt;P2&gt;P3&gt;DU&gt;RCPOS&gt;RC -->
<g id="node20" class="node">
<title>P1&gt;P2&gt;P3&gt;DU&gt;RCPOS&gt;RC</title>
<path fill="#029e73" stroke="none" d="M557.17,-212.16C557.17,-212.16 544.85,-212.16 544.85,-212.16 540.16,-212.16 535.46,-207.47 535.46,-202.77 535.46,-202.77 535.46,-193.39 535.46,-193.39 535.46,-188.69 540.16,-184 544.85,-184 544.85,-184 557.17,-184 557.17,-184 561.86,-184 566.56,-188.69 566.56,-193.39 566.56,-193.39 566.56,-202.77 566.56,-202.77 566.56,-207.47 561.86,-212.16 557.17,-212.16"/>
<text text-anchor="start" x="542.34" y="-195.48" font-family="Times,serif" font-weight="bold" font-size="12.00">RC</text>
</g>
<!-- P1&gt;P2&gt;P3&gt;DU&gt;RCPOS&#45;&gt;P1&gt;P2&gt;P3&gt;DU&gt;RCPOS&gt;RC -->
<g id="edge20" class="edge">
<title>P1&gt;P2&gt;P3&gt;DU&gt;RCPOS&#45;&gt;P1&gt;P2&gt;P3&gt;DU&gt;RCPOS&gt;RC</title>
<path fill="none" stroke="black" d="M472.79,-207.05C488.69,-205.2 508.93,-202.85 524.7,-201.02"/>
<polygon fill="black" stroke="black" points="524.7,-204.54 534.23,-199.91 523.9,-197.59 524.7,-204.54"/>
<text text-anchor="middle" x="502.43" y="-208.28" font-family="Times,serif" font-size="14.00">113</text>
</g>
<!-- P1&gt;P2&gt;P3&gt;DU&gt;RCPOS&gt;RN -->
<g id="node21" class="node">
<title>P1&gt;P2&gt;P3&gt;DU&gt;RCPOS&gt;RN</title>
<path fill="#de8f05" stroke="none" d="M557.17,-166.16C557.17,-166.16 544.85,-166.16 544.85,-166.16 540.16,-166.16 535.46,-161.47 535.46,-156.77 535.46,-156.77 535.46,-147.39 535.46,-147.39 535.46,-142.69 540.16,-138 544.85,-138 544.85,-138 557.17,-138 557.17,-138 561.86,-138 566.56,-142.69 566.56,-147.39 566.56,-147.39 566.56,-156.77 566.56,-156.77 566.56,-161.47 561.86,-166.16 557.17,-166.16"/>
<text text-anchor="start" x="542.34" y="-149.48" font-family="Times,serif" font-weight="bold" font-size="12.00">RN</text>
</g>
<!-- P1&gt;P2&gt;P3&gt;DU&gt;RCPOS&#45;&gt;P1&gt;P2&gt;P3&gt;DU&gt;RCPOS&gt;RN -->
<g id="edge21" class="edge">
<title>P1&gt;P2&gt;P3&gt;DU&gt;RCPOS&#45;&gt;P1&gt;P2&gt;P3&gt;DU&gt;RCPOS&gt;RN</title>
<path fill="none" stroke="black" d="M467.61,-196.15C475.17,-191.28 483.84,-185.88 491.93,-181.28 502.71,-175.16 514.93,-168.91 525.38,-163.78"/>
<polygon fill="black" stroke="black" points="526.64,-167.05 534.12,-159.54 523.59,-160.76 526.64,-167.05"/>
<text text-anchor="middle" x="502.43" y="-185.28" font-family="Times,serif" font-size="14.00">7</text>
</g>
<!-- P1&gt;P2&gt;P3&gt;DU&gt;RCRES&gt;AM -->
<g id="node23" class="node">
<title>P1&gt;P2&gt;P3&gt;DU&gt;RCRES&gt;AM</title>
<path fill="#d55e00" stroke="none" d="M558.5,-120.16C558.5,-120.16 543.52,-120.16 543.52,-120.16 538.83,-120.16 534.13,-115.47 534.13,-110.77 534.13,-110.77 534.13,-101.39 534.13,-101.39 534.13,-96.69 538.83,-92 543.52,-92 543.52,-92 558.5,-92 558.5,-92 563.19,-92 567.89,-96.69 567.89,-101.39 567.89,-101.39 567.89,-110.77 567.89,-110.77 567.89,-115.47 563.19,-120.16 558.5,-120.16"/>
<text text-anchor="start" x="541.01" y="-103.48" font-family="Times,serif" font-weight="bold" font-size="12.00">AM</text>
</g>
<!-- P1&gt;P2&gt;P3&gt;DU&gt;RCRES&#45;&gt;P1&gt;P2&gt;P3&gt;DU&gt;RCRES&gt;AM -->
<g id="edge22" class="edge">
<title>P1&gt;P2&gt;P3&gt;DU&gt;RCRES&#45;&gt;P1&gt;P2&gt;P3&gt;DU&gt;RCRES&gt;AM</title>
<path fill="none" stroke="black" d="M472.79,-88.88C488.22,-92.32 507.72,-96.66 523.27,-100.13"/>
<polygon fill="black" stroke="black" points="522.25,-103.48 532.78,-102.24 523.78,-96.65 522.25,-103.48"/>
<text text-anchor="middle" x="502.43" y="-101.28" font-family="Times,serif" font-size="14.00">2</text>
</g>
<!-- P1&gt;P2&gt;P3&gt;DU&gt;RCRES&gt;RC -->
<g id="node24" class="node">
<title>P1&gt;P2&gt;P3&gt;DU&gt;RCRES&gt;RC</title>
<path fill="#029e73" stroke="none" d="M557.17,-74.16C557.17,-74.16 544.85,-74.16 544.85,-74.16 540.16,-74.16 535.46,-69.47 535.46,-64.77 535.46,-64.77 535.46,-55.39 535.46,-55.39 535.46,-50.69 540.16,-46 544.85,-46 544.85,-46 557.17,-46 557.17,-46 561.86,-46 566.56,-50.69 566.56,-55.39 566.56,-55.39 566.56,-64.77 566.56,-64.77 566.56,-69.47 561.86,-74.16 557.17,-74.16"/>
<text text-anchor="start" x="542.34" y="-57.48" font-family="Times,serif" font-weight="bold" font-size="12.00">RC</text>
</g>
<!-- P1&gt;P2&gt;P3&gt;DU&gt;RCRES&#45;&gt;P1&gt;P2&gt;P3&gt;DU&gt;RCRES&gt;RC -->
<g id="edge23" class="edge">
<title>P1&gt;P2&gt;P3&gt;DU&gt;RCRES&#45;&gt;P1&gt;P2&gt;P3&gt;DU&gt;RCRES&gt;RC</title>
<path fill="none" stroke="black" d="M472.52,-76.79C478.86,-75.28 485.64,-73.69 491.93,-72.28 502.63,-69.88 514.46,-67.37 524.64,-65.25"/>
<polygon fill="black" stroke="black" points="525.1,-68.73 534.18,-63.28 523.68,-61.88 525.1,-68.73"/>
<text text-anchor="middle" x="502.43" y="-76.28" font-family="Times,serif" font-size="14.00">35</text>
</g>
<!-- P1&gt;P2&gt;P3&gt;DU&gt;RCRES&gt;RN -->
<g id="node25" class="node">
<title>P1&gt;P2&gt;P3&gt;DU&gt;RCRES&gt;RN</title>
<path fill="#de8f05" stroke="none" d="M557.17,-28.16C557.17,-28.16 544.85,-28.16 544.85,-28.16 540.16,-28.16 535.46,-23.47 535.46,-18.77 535.46,-18.77 535.46,-9.39 535.46,-9.39 535.46,-4.69 540.16,0 544.85,0 544.85,0 557.17,0 557.17,0 561.86,0 566.56,-4.69 566.56,-9.39 566.56,-9.39 566.56,-18.77 566.56,-18.77 566.56,-23.47 561.86,-28.16 557.17,-28.16"/>
<text text-anchor="start" x="542.34" y="-11.48" font-family="Times,serif" font-weight="bold" font-size="12.00">RN</text>
</g>
<!-- P1&gt;P2&gt;P3&gt;DU&gt;RCRES&#45;&gt;P1&gt;P2&gt;P3&gt;DU&gt;RCRES&gt;RN -->
<g id="edge24" class="edge">
<title>P1&gt;P2&gt;P3&gt;DU&gt;RCRES&#45;&gt;P1&gt;P2&gt;P3&gt;DU&gt;RCRES&gt;RN</title>
<path fill="none" stroke="black" d="M462.51,-69.07C470.96,-61.88 481.71,-53.2 491.93,-46.28 502.68,-39.01 515.19,-31.91 525.85,-26.24"/>
<polygon fill="black" stroke="black" points="527.16,-29.51 534.41,-21.79 523.92,-23.3 527.16,-29.51"/>
<text text-anchor="middle" x="502.43" y="-51.28" font-family="Times,serif" font-size="14.00">11</text>
</g>
</g>
</svg>
